<svg xmlns="http://www.w3.org/2000/svg" viewBox="0 0 1200 420" width="1200" height="420">
  <style>
    :root {
      --text-primary: #1c1917;
      --text-secondary: #78716c;
      --text-tertiary: #a8a29e;
      --border: #e7e5e4;
      --border-subtle: #f5f5f4;
      --cyan: #0d9488;
      --cyan-light: #14b8a6;
      --cyan-glow: rgba(13, 148, 136, 0.1);
      --amber: #d97706;
      --amber-light: #f59e0b;
      --amber-glow: rgba(217, 119, 6, 0.1);
      --box-bg: #fafaf9;
      --box-border: #d6d3d1;
      --grid: #f5f5f4;
    }
    @media (prefers-color-scheme: dark) {
      :root {
        --text-primary: #f5f5f4;
        --text-secondary: #a8a29e;
        --text-tertiary: #57534e;
        --border: #292524;
        --border-subtle: #1c1917;
        --cyan: #2dd4bf;
        --cyan-light: #5eead4;
        --cyan-glow: rgba(45, 212, 191, 0.12);
        --amber: #fbbf24;
        --amber-light: #fcd34d;
        --amber-glow: rgba(251, 191, 36, 0.12);
        --box-bg: #1c1917;
        --box-border: #44403c;
        --grid: #1c1917;
      }
    }
  </style>

  <defs>
    <filter id="glow" x="-30%" y="-30%" width="160%" height="160%">
      <feGaussianBlur stdDeviation="2" result="b"/>
      <feMerge><feMergeNode in="b"/><feMergeNode in="SourceGraphic"/></feMerge>
    </filter>
  </defs>

  <rect width="1200" height="420" fill="transparent"/>

  <!-- 网格 -->
  <pattern id="grid" width="28" height="28" patternUnits="userSpaceOnUse">
    <path d="M 28 0 L 0 0 0 28" fill="none" stroke="var(--grid)" stroke-width="0.5"/>
  </pattern>
  <rect width="1200" height="420" fill="url(#grid)"/>

  <!-- 中央光晕 -->
  <ellipse cx="600" cy="170" rx="380" ry="120" fill="var(--cyan-glow)" opacity="0.8"/>

  <!-- ====== 核心视觉：桥接枢纽 ====== -->
  <g transform="translate(600, 175)">
    <!-- 外环刻度 -->
    <circle cx="0" cy="0" r="90" fill="none" stroke="var(--border)" stroke-width="1.2" opacity="0.5"/>
    <circle cx="0" cy="0" r="78" fill="none" stroke="var(--border-subtle)" stroke-width="0.8" opacity="0.4"/>

    <!-- 四向刻度线 -->
    <line x1="0" y1="-90" x2="0" y2="-84" stroke="var(--text-tertiary)" stroke-width="1.5" stroke-linecap="round"/>
    <line x1="0" y1="90" x2="0" y2="84" stroke="var(--text-tertiary)" stroke-width="1.5" stroke-linecap="round"/>
    <line x1="-90" y1="0" x2="-84" y2="0" stroke="var(--text-tertiary)" stroke-width="1.5" stroke-linecap="round"/>
    <line x1="90" y1="0" x2="84" y2="0" stroke="var(--text-tertiary)" stroke-width="1.5" stroke-linecap="round"/>

    <!-- 中心圆环 -->
    <circle cx="0" cy="0" r="22" fill="none" stroke="var(--text-primary)" stroke-width="3"/>
    <circle cx="0" cy="0" r="9" fill="var(--text-primary)"/>

    <!-- 四向连接臂 -->
    <line x1="-22" y1="0" x2="-60" y2="0" stroke="var(--text-primary)" stroke-width="3" stroke-linecap="round"/>
    <line x1="22" y1="0" x2="60" y2="0" stroke="var(--text-primary)" stroke-width="3" stroke-linecap="round"/>
    <line x1="0" y1="-22" x2="0" y2="-60" stroke="var(--text-primary)" stroke-width="3" stroke-linecap="round"/>
    <line x1="0" y1="22" x2="0" y2="60" stroke="var(--text-primary)" stroke-width="3" stroke-linecap="round"/>

    <!-- 端点: 左=活跃(绿) 其余=待机(灰) -->
    <circle cx="-64" cy="0" r="6" fill="#10b981"/>
    <circle cx="64" cy="0" r="6" fill="var(--text-tertiary)" opacity="0.5"/>
    <circle cx="0" cy="-64" r="6" fill="var(--text-tertiary)" opacity="0.5"/>
    <circle cx="0" cy="64" r="6" fill="var(--text-tertiary)" opacity="0.5"/>

    <!-- 底部基准线 -->
    <line x1="-110" y1="105" x2="110" y2="105" stroke="var(--border)" stroke-width="0.8" opacity="0.3"/>
  </g>

  <!-- ====== 品牌文字 ====== -->
  <g transform="translate(600, 300)">
    <!-- OPEN -->
    <text x="-275" y="0"
          font-family="system-ui, -apple-system, 'Segoe UI', Roboto, sans-serif"
          font-size="90"
          font-weight="800"
          letter-spacing="8"
          fill="var(--cyan)">OPEN</text>

    <!-- BRIGE -->
    <text x="-5" y="0"
          font-family="system-ui, -apple-system, 'Segoe UI', Roboto, sans-serif"
          font-size="90"
          font-weight="800"
          letter-spacing="8"
          fill="var(--amber)">BRIGE</text>

    <!-- 下划线 -->
    <line x1="-310" y1="22" x2="310" y2="22" stroke="var(--border)" stroke-width="1.2"/>
    <line x1="-230" y1="30" x2="230" y2="30" stroke="var(--border-subtle)" stroke-width="0.6"/>

    <!-- 版本号 -->
    <text x="320" y="-42"
          font-family="ui-monospace, 'SF Mono', Menlo, Consolas, monospace"
          font-size="14"
          fill="var(--text-tertiary)">v0.1</text>
  </g>

  <!-- ====== 标语（双语）====== -->
  <g transform="translate(600, 352)">
    <text x="0" y="0"
          text-anchor="middle"
          font-family="ui-monospace, 'SF Mono', Menlo, Consolas, monospace"
          font-size="16"
          font-weight="500"
          letter-spacing="3"
          fill="var(--text-secondary)">AGENT IS A BLACK BOX. OPENBRIGE IS THE COCKPIT.</text>
    <text x="0" y="24"
          text-anchor="middle"
          font-family="ui-monospace, 'SF Mono', Menlo, Consolas, monospace"
          font-size="16"
          font-weight="500"
          letter-spacing="2"
          fill="var(--text-tertiary)">Agent 是黑盒，OpenBrige 是驾驶舱。</text>
  </g>

  <!-- ====== 底部标签 ====== -->
  <g transform="translate(600, 405)" opacity="0.6">
    <rect x="-275" y="-13" width="92" height="26" rx="13" fill="none" stroke="var(--border)" stroke-width="1"/>
    <text x="-229" y="5" text-anchor="middle" font-family="ui-monospace, monospace" font-size="11" font-weight="600" letter-spacing="0.5" fill="var(--text-secondary)">LOCAL-FIRST</text>

    <rect x="-175" y="-13" width="92" height="26" rx="13" fill="none" stroke="var(--border)" stroke-width="1"/>
    <text x="-129" y="5" text-anchor="middle" font-family="ui-monospace, monospace" font-size="11" font-weight="600" letter-spacing="0.5" fill="var(--text-secondary)">OPEN SOURCE</text>

    <rect x="-75" y="-13" width="76" height="26" rx="13" fill="none" stroke="var(--border)" stroke-width="1"/>
    <text x="-37" y="5" text-anchor="middle" font-family="ui-monospace, monospace" font-size="11" font-weight="600" letter-spacing="0.5" fill="var(--text-secondary)">AGPL-3.0</text>

    <rect x="13" y="-13" width="84" height="26" rx="13" fill="none" stroke="var(--border)" stroke-width="1"/>
    <text x="55" y="5" text-anchor="middle" font-family="ui-monospace, monospace" font-size="11" font-weight="600" letter-spacing="0.5" fill="var(--text-secondary)">TYPESCRIPT</text>

    <rect x="103" y="-13" width="84" height="26" rx="13" fill="none" stroke="var(--border)" stroke-width="1"/>
    <text x="145" y="5" text-anchor="middle" font-family="ui-monospace, monospace" font-size="11" font-weight="600" letter-spacing="0.5" fill="var(--text-secondary)">WEBSOCKET</text>

    <rect x="193" y="-13" width="76" height="26" rx="13" fill="none" stroke="var(--border)" stroke-width="1"/>
    <text x="231" y="5" text-anchor="middle" font-family="ui-monospace, monospace" font-size="11" font-weight="600" letter-spacing="0.5" fill="var(--text-secondary)">WORKTREE</text>
  </g>

  <!-- ====== 四角刻度 ====== -->
  <g stroke="var(--border)" stroke-width="0.8" fill="none" opacity="0.3">
    <path d="M 32 32 L 32 52 M 32 32 L 52 32"/>
    <circle cx="32" cy="32" r="2" fill="var(--border)" stroke="none"/>
    <path d="M 1168 32 L 1168 52 M 1168 32 L 1148 32"/>
    <circle cx="1168" cy="32" r="2" fill="var(--border)" stroke="none"/>
    <path d="M 32 388 L 32 368 M 32 388 L 52 388"/>
    <circle cx="32" cy="388" r="2" fill="var(--border)" stroke="none"/>
    <path d="M 1168 388 L 1168 368 M 1168 388 L 1148 388"/>
    <circle cx="1168" cy="388" r="2" fill="var(--border)" stroke="none"/>
  </g>

  <!-- 边缘线框 -->
  <rect x="12" y="12" width="1176" height="396" rx="3" fill="none" stroke="var(--border)" stroke-width="0.7" opacity="0.35"/>
</svg>